<?xml version="1.0" encoding="utf-8"?>
<!-- Generator: Adobe Illustrator 16.0.0, SVG Export Plug-In . SVG Version: 6.00 Build 0)  -->
<!DOCTYPE svg PUBLIC "-//W3C//DTD SVG 1.1//EN" "http://www.w3.org/Graphics/SVG/1.1/DTD/svg11.dtd">
<svg version="1.1" id="Calque_1" xmlns="http://www.w3.org/2000/svg" xmlns:xlink="http://www.w3.org/1999/xlink" x="0px" y="0px"
	 width="1024px" height="1024px" viewBox="0 0 1024 1024" enable-background="new 0 0 1024 1024" xml:space="preserve">
<polygon points="165.158,162.567 0,162.567 0,1024 858.84,1024 858.84,861.426 165.158,861.426 "/>
<polygon fill="#22409A" points="1024,0 165.158,0 165.158,162.567 165.158,861.426 858.84,861.426 1024,861.426 "/>
<path id="path4137" fill="#FFFFFF" d="M127.302,807.871l37.887-2.941l-0.03,56.525l31.874-0.02c20.042,0,38.865,5.877,40.833,30.572
	c1.477,18.723-10.271,31.26-20.627,33.176c-12.723,0-8.912,0.047-25.868,0.047c5.6,0,22.135-10.34,18.432-24.5
	c-3.429-13.064-14.894-13.309-25.625-14.002c-10.764-0.674-56.305-3.021-56.305-3.021L127.302,807.871"/>
<path id="path4141" fill="#FFFFFF" d="M75.338,876.635c-6.88,8.389-13.747,21.217-9.81,35.543
	c11.787,40.061,75.059,57.725,101.675,58.797l-3.1-46.875c0,0-43.224,5.729-65.06-17.342c-9.272-9.783-7.412-20.066-0.438-28.947
	C90.437,877.42,80.837,876.879,75.338,876.635"/>
<path id="path4145" fill="#FFFFFF" d="M267.872,819.918h-42.997v-112.27h-17.26v-33.604h17.26c0-12.955-0.585-28.578,6.725-39.773
	c9.077-13.559,26.04-19.74,41.833-19.74c3.506,0,15.495,0.289,24.563,2.062v33.299C291.568,649,288.35,649,281.618,649
	c-13.747,0-13.747,9.139-13.747,21.809v3.236H294.2v33.604h-26.329V819.918"/>
<path id="path4147" fill="#FFFFFF" d="M346.842,670.217v27.994h0.586c4.388-15.91,13.16-32.41,31.882-30.939l7.31,0.592v43.318
	c-32.757-1.773-36.857,25.045-36.857,51.568v57.168h-42.997V670.217H346.842"/>
<path id="path4149" fill="#FFFFFF" d="M484.023,748.312c-16.387,1.764-46.51,5.596-46.51,27.4c0,11.787,7.02,19.74,19.01,19.74
	c8.778,0,16.675-4.713,21.642-12.369c6.146-9.434,5.858-18.279,5.858-28.877V748.312z M488.117,819.918
	c-1.758-7.664-2.343-15.619-2.055-23.283c-12.278,17.682-25.15,26.229-47.378,26.229c-26.329,0-46.799-14.143-46.799-42.439
	c0-22.094,13.745-37.125,33.342-44.488c16.965-6.486,40.662-7.664,58.797-9.434v-3.533c0-6.484,0.578-14.148-3.812-19.744
	c-3.795-5.014-11.113-7.074-17.542-7.074c-13.747,0-25.743,7.074-25.743,21.805l-40.653-3.832
	c4.382-36.242,39.481-46.852,70.787-46.852c15.207,0,35.091,3.537,47.086,13.559c15.207,12.371,13.747,28.881,13.747,46.85v69.834
	c0,7.664,0.58,15.031,2.92,22.404H488.117"/>
<path id="path4151" fill="#FFFFFF" d="M549.833,670.217h40.653v25.342h0.587c8.771-19.148,21.054-28.287,42.7-28.287
	c14.04,0,27.787,4.424,36.56,16.504c8.193,11.195,8.193,30.059,8.193,43.613v92.529h-43v-80.451c0-15.32,2.047-37.713-19.593-37.713
	c-7.607,0-14.63,4.414-18.137,11.197c-4.391,8.547-4.967,17.09-4.967,26.516v80.451h-42.997V670.217"/>
<path id="path4153" fill="#FFFFFF" d="M790.837,727.092c0-13.553-7.021-26.818-22.517-26.818c-23.697,0-26.617,23.574-26.617,42.73
	c0,18.268,0.297,44.205,24.86,44.205c15.206,0,22.813-12.088,24.273-25.938l40.95,2.361c-3.507,37.133-31.294,59.23-67.567,59.23
	c-45.033,0-71.659-32.123-71.659-76.32c0-45.971,27.493-79.271,74.293-79.271c34.52,0,62.013,22.396,64.934,57.467L790.837,727.092"
	/>
<path id="path4155" fill="#FFFFFF" d="M939.72,726.801c-0.883-16.211-6.146-31.242-24.87-31.242
	c-19.01,0-26.319,14.152-27.783,31.242H939.72z M887.36,752.434l-0.294,7.367c0,17.682,9.947,32.119,28.667,32.119
	c13.16,0,26.32-9.727,26.32-23.574l39.779,2.951c0,7.365-17.253,51.566-67.56,51.566c-44.467,0-73.42-31.238-73.42-75.729
	c0-44.209,26.033-79.863,72.246-79.863c20.767,0,42.12,9.428,54.4,26.521c12.287,17.096,15.503,38.311,15.213,58.641H887.36"/>
<path id="path4157" fill="#FFFFFF" d="M259.765,399.203v36.605h0.765c5.733-20.806,17.207-42.381,41.683-40.462l9.56,0.772v56.646
	c-42.832-2.313-48.19,32.75-48.19,67.426v74.754h-56.218V399.202h52.4"/>
<path id="path4159" fill="#FFFFFF" d="M439.13,501.315c-21.417,2.306-60.812,7.318-60.812,35.826
	c0,15.414,9.177,25.814,24.86,25.814c11.473,0,21.798-6.158,28.305-16.176c8.028-12.328,7.646-23.887,7.646-37.762V501.315z
	 M444.487,594.945c-2.295-10.027-3.062-20.432-2.678-30.445c-16.067,23.119-32.89,34.291-61.96,34.291
	c-34.42,0-61.193-18.49-61.193-55.48c0-28.902,17.978-48.551,43.604-58.182c22.182-8.475,53.157-10.018,76.87-12.33v-4.628
	c0-8.474,0.765-18.49-4.968-25.816c-4.975-6.547-14.535-9.246-22.955-9.246c-17.972,0-33.655,9.246-33.655,28.515l-53.157-5.013
	c5.733-47.393,51.626-61.266,92.553-61.266c19.885,0,45.894,4.627,61.577,17.728c19.885,16.178,17.972,37.763,17.972,61.266v91.316
	c0,10.018,0.765,19.648,3.827,29.289H444.487"/>
<path id="path4161" fill="#FFFFFF" d="M637.24,486.286c0-18.885-1.533-51.249-27.16-51.249c-32.12,0-33.27,42.381-33.27,65.883
	c0,21.199,3.062,57.031,30.977,57.031c10.326,0,19.893-6.932,24.486-15.797c4.583-8.861,4.967-19.262,4.967-28.896V486.286
	L637.24,486.286z M639.92,594.945V564.5h-0.767c-10.707,20.805-26.773,34.291-51.634,34.291c-54.689,0-69.989-53.939-69.989-99.412
	c0-46.614,14.536-104.033,71.137-104.033c21.8,0,36.333,6.555,48.573,24.661V330.62h56.22v264.326H639.92"/>
<path id="path4163" fill="#FFFFFF" d="M777.217,594.945h-56.224V399.203h56.224V594.945z M777.217,381.482H720.99v-54.719h56.227
	V381.482"/>
<path id="path4165" fill="#FFFFFF" d="M858.67,490.905c0,22.354-0.383,70.132,31.75,70.132c31.74,0,33.273-38.531,33.273-62.044
	c0-15.406-0.767-33.897-6.116-48.541c-4.594-12.716-13.771-17.729-26.784-17.729C860.583,432.723,858.67,468.557,858.67,490.905z
	 M984.12,498.615c0,55.867-36.333,100.176-93.7,100.176c-59.663,0-92.18-45.467-92.18-102.104
	c0-57.024,32.899-101.341,92.18-101.341C951.23,395.346,984.12,440.812,984.12,498.615"/>
</svg>
